<svg width="17" height="16" viewBox="0 0 17 16" fill="none" xmlns="http://www.w3.org/2000/svg">
<path d="M8.80507 10.6667C8.64931 10.667 8.49835 10.6127 8.37841 10.5133L4.37841 7.18001C4.24226 7.06685 4.15665 6.90424 4.14039 6.72796C4.12414 6.55168 4.17858 6.37616 4.29174 6.24001C4.4049 6.10387 4.56751 6.01825 4.74379 6.002C4.92008 5.98574 5.0956 6.04018 5.23174 6.15334L8.80507 9.14001L12.3784 6.26001C12.4466 6.20463 12.5251 6.16328 12.6093 6.13832C12.6935 6.11337 12.7818 6.10531 12.8692 6.1146C12.9565 6.12389 13.0412 6.15036 13.1183 6.19247C13.1954 6.23459 13.2634 6.29153 13.3184 6.36001C13.3795 6.42856 13.4257 6.50898 13.4542 6.59623C13.4828 6.68347 13.493 6.77567 13.4842 6.86705C13.4754 6.95843 13.4479 7.04701 13.4033 7.12725C13.3587 7.20748 13.298 7.27765 13.2251 7.33334L9.22507 10.5533C9.10169 10.637 8.95381 10.6769 8.80507 10.6667Z" fill="#212B36"/>
</svg>
