<svg width="17" height="17" viewBox="0 0 17 17" fill="none" xmlns="http://www.w3.org/2000/svg">
<path fill-rule="evenodd" clip-rule="evenodd" d="M9.58522 3.63106C9.58522 2.4044 10.5852 1.40906 11.8172 1.40906C12.1097 1.40836 12.3995 1.46528 12.67 1.57657C12.9405 1.68785 13.1864 1.85133 13.3937 2.05766C13.6011 2.26399 13.7657 2.50914 13.8783 2.77911C13.9909 3.04907 14.0492 3.33857 14.0499 3.63106C14.0499 4.8584 13.0499 5.85373 11.8172 5.85373C11.5216 5.85409 11.2289 5.7957 10.956 5.68194C10.6832 5.56818 10.4357 5.40132 10.2279 5.19106L7.13789 7.29506C7.22394 7.72373 7.18174 8.16825 7.01655 8.57306L10.4046 10.7997C10.8036 10.4743 11.303 10.2969 11.8179 10.2977C12.1104 10.2971 12.4001 10.3541 12.6706 10.4655C12.9411 10.5769 13.187 10.7404 13.3942 10.9468C13.6015 11.1532 13.7661 11.3984 13.8786 11.6684C13.9911 11.9384 14.0493 12.2279 14.0499 12.5204C14.0499 13.7471 13.0499 14.7424 11.8172 14.7424C11.2266 14.7436 10.6597 14.5102 10.2411 14.0936C9.82256 13.6769 9.58663 13.111 9.58522 12.5204C9.5847 12.2088 9.65037 11.9007 9.77789 11.6164L6.41655 9.40906C6.00949 9.763 5.48797 9.95745 4.94855 9.9564C4.65603 9.9571 4.36624 9.90015 4.09573 9.78882C3.82522 9.67748 3.5793 9.51393 3.37203 9.30752C3.16475 9.10111 3.00017 8.85588 2.8877 8.58584C2.77524 8.31581 2.71708 8.02625 2.71655 7.73373C2.71716 7.44126 2.77539 7.15178 2.8879 6.88182C3.0004 6.61186 3.16499 6.36671 3.37226 6.16037C3.57953 5.95403 3.82542 5.79054 4.09588 5.67925C4.36635 5.56795 4.65609 5.51103 4.94855 5.51173C5.65789 5.51173 6.28855 5.8404 6.69722 6.3524L9.69255 4.31306C9.62129 4.09275 9.58507 3.86261 9.58522 3.63106Z" fill="#919EAB"/>
</svg>
