<svg width="17" height="17" viewBox="0 0 17 17" fill="none" xmlns="http://www.w3.org/2000/svg">
<path d="M7.45312 8.07574C7.45312 7.67792 7.61116 7.29639 7.89246 7.01508C8.17377 6.73378 8.5553 6.57574 8.95312 6.57574C9.35095 6.57574 9.73248 6.73378 10.0138 7.01508C10.2951 7.29639 10.4531 7.67792 10.4531 8.07574C10.4531 8.47357 10.2951 8.8551 10.0138 9.1364C9.73248 9.41771 9.35095 9.57574 8.95312 9.57574C8.5553 9.57574 8.17377 9.41771 7.89246 9.1364C7.61116 8.8551 7.45312 8.47357 7.45312 8.07574Z" fill="#919EAB"/>
<path fill-rule="evenodd" clip-rule="evenodd" d="M2.2865 8.07577C2.2865 9.1691 2.56983 9.53643 3.1365 10.2731C4.26783 11.7424 6.16517 13.4091 8.95317 13.4091C11.7412 13.4091 13.6385 11.7424 14.7698 10.2731C15.3365 9.5371 15.6198 9.16843 15.6198 8.07577C15.6198 6.98243 15.3365 6.6151 14.7698 5.87843C13.6385 4.4091 11.7412 2.74243 8.95317 2.74243C6.16517 2.74243 4.26783 4.4091 3.1365 5.87843C2.56983 6.61577 2.2865 6.9831 2.2865 8.07577ZM8.95317 5.57577C8.29012 5.57577 7.65424 5.83916 7.1854 6.308C6.71656 6.77684 6.45317 7.41272 6.45317 8.07577C6.45317 8.73881 6.71656 9.37469 7.1854 9.84353C7.65424 10.3124 8.29012 10.5758 8.95317 10.5758C9.61621 10.5758 10.2521 10.3124 10.7209 9.84353C11.1898 9.37469 11.4532 8.73881 11.4532 8.07577C11.4532 7.41272 11.1898 6.77684 10.7209 6.308C10.2521 5.83916 9.61621 5.57577 8.95317 5.57577Z" fill="#919EAB"/>
</svg>
