<svg width="15" height="18" viewBox="0 0 15 18" fill="none" xmlns="http://www.w3.org/2000/svg">
<path fill-rule="evenodd" clip-rule="evenodd" d="M9.00246 3.4442C9.00246 1.91086 10.2525 0.666695 11.7925 0.666695C12.1581 0.665818 12.5203 0.736966 12.8584 0.876074C13.1966 1.01518 13.504 1.21953 13.7631 1.47744C14.0223 1.73536 14.2281 2.04179 14.3688 2.37925C14.5095 2.7167 14.5824 3.07857 14.5833 3.4442C14.5833 4.97836 13.3333 6.22253 11.7925 6.22253C11.4229 6.22298 11.057 6.14999 10.716 6.00779C10.3749 5.86559 10.0655 5.65701 9.80579 5.3942L5.94329 8.0242C6.05086 8.56003 5.99811 9.11568 5.79163 9.6217L10.0266 12.405C10.5254 11.9982 11.1496 11.7765 11.7933 11.7775C12.1589 11.7768 12.5211 11.848 12.8592 11.9872C13.1973 12.1264 13.5046 12.3309 13.7637 12.5889C14.0228 12.8469 14.2285 13.1534 14.3691 13.4909C14.5098 13.8283 14.5825 14.1902 14.5833 14.5559C14.5833 16.0892 13.3333 17.3334 11.7925 17.3334C11.0542 17.3349 10.3455 17.0432 9.82234 16.5223C9.29914 16.0015 9.00423 15.2941 9.00246 14.5559C9.00181 14.1664 9.0839 13.7812 9.24329 13.4259L5.04163 10.6667C4.5328 11.1091 3.8809 11.3522 3.20663 11.3509C2.84097 11.3517 2.47873 11.2806 2.1406 11.1414C1.80246 11.0022 1.49507 10.7978 1.23597 10.5398C0.976871 10.2818 0.771152 9.97522 0.630566 9.63767C0.48998 9.30012 0.417282 8.93818 0.416626 8.57253C0.417391 8.20695 0.49017 7.84509 0.630805 7.50764C0.77144 7.17019 0.977176 6.86375 1.23626 6.60583C1.49535 6.3479 1.80271 6.14354 2.14079 6.00442C2.47887 5.86531 2.84104 5.79415 3.20663 5.79503C4.09329 5.79503 4.88163 6.20586 5.39246 6.84586L9.13663 4.29669C9.04755 4.02131 9.00227 3.73363 9.00246 3.4442Z" fill="white"/>
</svg>
