<svg width="17" height="17" viewBox="0 0 17 17" fill="none" xmlns="http://www.w3.org/2000/svg">
<path d="M13.6664 3.36241C12.5726 2.26141 11.1288 1.57655 9.58416 1.4259C8.03949 1.27525 6.49065 1.66826 5.20467 2.53716C3.9187 3.40606 2.97617 4.69641 2.53959 6.18575C2.10301 7.67508 2.19973 9.27007 2.81308 10.6957C2.87701 10.8282 2.89798 10.9774 2.87308 11.1224L2.28642 13.9424C2.26381 14.0505 2.26843 14.1626 2.29985 14.2685C2.33127 14.3744 2.3885 14.4708 2.46642 14.5491C2.53028 14.6125 2.60633 14.6623 2.68997 14.6955C2.77361 14.7288 2.86311 14.7447 2.95308 14.7424H3.08642L5.93975 14.1691C6.08477 14.1516 6.23183 14.1723 6.36642 14.2291C7.79208 14.8424 9.38707 14.9391 10.8764 14.5026C12.3657 14.066 13.6561 13.1235 14.525 11.8375C15.3939 10.5515 15.7869 9.00267 15.6363 7.45799C15.4856 5.91331 14.8007 4.4696 13.6997 3.37574L13.6664 3.36241ZM6.28642 8.74241C6.15456 8.74241 6.02567 8.70331 5.91604 8.63005C5.8064 8.5568 5.72095 8.45268 5.6705 8.33086C5.62004 8.20904 5.60683 8.075 5.63256 7.94568C5.65828 7.81636 5.72178 7.69757 5.81501 7.60434C5.90825 7.5111 6.02703 7.44761 6.15635 7.42188C6.28568 7.39616 6.41972 7.40936 6.54154 7.45982C6.66336 7.51028 6.76747 7.59573 6.84073 7.70536C6.91398 7.81499 6.95308 7.94389 6.95308 8.07574C6.95308 8.25255 6.88284 8.42212 6.75782 8.54714C6.6328 8.67217 6.46323 8.74241 6.28642 8.74241ZM8.95308 8.74241C8.82123 8.74241 8.69233 8.70331 8.5827 8.63005C8.47307 8.5568 8.38762 8.45268 8.33716 8.33086C8.2867 8.20904 8.2735 8.075 8.29922 7.94568C8.32495 7.81636 8.38844 7.69757 8.48168 7.60434C8.57491 7.5111 8.6937 7.44761 8.82302 7.42188C8.95234 7.39616 9.08639 7.40936 9.2082 7.45982C9.33002 7.51028 9.43414 7.59573 9.50739 7.70536C9.58065 7.81499 9.61975 7.94389 9.61975 8.07574C9.61975 8.25255 9.54951 8.42212 9.42449 8.54714C9.29946 8.67217 9.12989 8.74241 8.95308 8.74241ZM11.6197 8.74241C11.4879 8.74241 11.359 8.70331 11.2494 8.63005C11.1397 8.5568 11.0543 8.45268 11.0038 8.33086C10.9534 8.20904 10.9402 8.075 10.9659 7.94568C10.9916 7.81636 11.0551 7.69757 11.1483 7.60434C11.2416 7.5111 11.3604 7.44761 11.4897 7.42188C11.619 7.39616 11.7531 7.40936 11.8749 7.45982C11.9967 7.51028 12.1008 7.59573 12.1741 7.70536C12.2473 7.81499 12.2864 7.94389 12.2864 8.07574C12.2864 8.25255 12.2162 8.42212 12.0912 8.54714C11.9661 8.67217 11.7966 8.74241 11.6197 8.74241Z" fill="#919EAB"/>
</svg>
