<svg width="41" height="40" viewBox="0 0 41 40" fill="none" xmlns="http://www.w3.org/2000/svg">
<path fill-rule="evenodd" clip-rule="evenodd" d="M14.81 22.3104L14.582 22.7243L14.3498 23.1433L14.1274 23.5413L13.9498 23.8572L13.779 24.1585L13.5832 24.5009L13.4582 24.7177L13.279 25.0254L13.1931 25.1714L13.0825 25.358L13.0024 25.4918L12.8995 25.6621L12.8253 25.7838L12.707 25.975L12.6394 26.0828L12.5743 26.1853L12.5116 26.2827L12.4515 26.3749L12.3938 26.4616L12.3207 26.5695L12.2688 26.6441L12.2356 26.691L12.2036 26.7357L12.1575 26.7982L12.1281 26.837L12.0862 26.8909L12.0728 26.9077C11.2322 27.9522 10.3153 28.7431 9.18766 29.1994C6.81688 30.3136 3.86969 30.3657 1.59375 28.9881L7.24586 19.2474L7.46461 19.113C11.3128 16.8219 13.1741 19.2002 14.81 22.3104Z" fill="url(#paint0_linear_1_1179)"/>
<path fill-rule="evenodd" clip-rule="evenodd" d="M35.2117 17.9473C31.5969 11.6227 27.8602 5.6639 23.5677 14.4048C22.9805 15.5286 22.5525 17.7124 21.5938 17.7124V17.7013C20.635 17.7013 20.207 15.5175 19.6199 14.3937C15.3273 5.65281 11.5906 11.6116 7.97578 17.9362C7.70367 18.4133 7.44234 18.8684 7.21875 19.2641C15.503 14.0198 14.8055 29.863 21.5938 29.9889V30C28.3821 29.8741 27.6845 14.0309 35.9688 19.275C35.7453 18.8795 35.4839 18.4244 35.2117 17.9473Z" fill="url(#paint1_linear_1_1179)"/>
<path fill-rule="evenodd" clip-rule="evenodd" d="M35.6562 30C37.7273 30 39.4062 28.321 39.4062 26.25C39.4062 24.179 37.7273 22.5 35.6562 22.5C33.5852 22.5 31.9062 24.179 31.9062 26.25C31.9062 28.321 33.5852 30 35.6562 30Z" fill="url(#paint2_linear_1_1179)"/>
<defs>
<linearGradient id="paint0_linear_1_1179" x1="1323.22" y1="135.851" x2="720.873" y2="674.97" gradientUnits="userSpaceOnUse">
<stop stop-color="#007867"/>
<stop offset="1" stop-color="#00A76F"/>
</linearGradient>
<linearGradient id="paint1_linear_1_1179" x1="1444.72" y1="10" x2="1444.72" y2="2010" gradientUnits="userSpaceOnUse">
<stop stop-color="#5BE49B"/>
<stop offset="1" stop-color="#00A76F"/>
</linearGradient>
<linearGradient id="paint2_linear_1_1179" x1="406.906" y1="22.5" x2="406.906" y2="772.5" gradientUnits="userSpaceOnUse">
<stop stop-color="#5BE49B"/>
<stop offset="1" stop-color="#00A76F"/>
</linearGradient>
</defs>
</svg>
